<?xml version="1.0" standalone="no"?>
<!DOCTYPE svg PUBLIC "-//W3C//DTD SVG 20010904//EN"
 "http://www.w3.org/TR/2001/REC-SVG-20010904/DTD/svg10.dtd">
<svg version="1.0" xmlns="http://www.w3.org/2000/svg"
 width="1024.000000pt" height="1024.000000pt" viewBox="0 0 1024.000000 1024.000000"
 preserveAspectRatio="xMidYMid meet">
<metadata>
Created by potrace 1.14, written by Peter Selinger 2001-2017
</metadata>
<g transform="translate(0.000000,1024.000000) scale(0.100000,-0.100000)"
fill="#000000" stroke="none">
<path d="M3867 8643 c-1 -1 -34 -3 -72 -4 -101 -4 -205 -39 -257 -88 -105 -98
-123 -125 -159 -229 -18 -52 -19 -100 -16 -1016 l2 -961 26 -61 c63 -149 208
-264 354 -279 16 -2 258 -4 538 -4 l507 -1 0 -275 0 -275 -1940 0 c-1067 0
-1942 0 -1945 0 -25 -2 -90 -34 -116 -57 -59 -52 -71 -99 -71 -270 0 -174 9
-212 62 -266 34 -33 106 -69 134 -66 6 1 336 1 733 0 l721 -1 0 -275 -1 -275
-401 -1 c-221 -1 -412 -2 -426 -3 -71 -7 -161 -51 -231 -113 -88 -80 -132
-163 -146 -277 -7 -61 -7 -1830 0 -1866 25 -127 65 -195 163 -280 61 -53 121
-80 219 -96 46 -8 2278 -9 2315 -1 92 19 141 41 211 96 47 36 89 88 122 149
46 85 46 83 46 1077 0 1060 4 992 -79 1116 -56 85 -138 147 -235 179 -54 18
-49 18 -497 19 l-398 1 0 275 0 275 2090 0 2090 0 0 -275 0 -275 -408 0 c-444
0 -478 -3 -570 -57 -46 -27 -130 -105 -165 -153 -9 -13 -27 -49 -40 -80 l-22
-55 -2 -950 c-2 -612 1 -966 7 -995 41 -182 196 -322 383 -347 52 -7 2273 -7
2307 0 111 22 172 54 248 129 67 67 98 120 118 205 15 60 16 172 17 963 0 816
-3 986 -17 1009 -3 4 -7 19 -10 33 -11 65 -127 201 -204 241 -52 27 -101 44
-147 51 -16 2 -211 5 -431 5 l-402 1 0 275 0 275 727 1 c399 0 737 2 750 5 42
8 91 36 118 68 48 57 55 88 55 255 1 135 -2 163 -19 202 -29 66 -93 114 -163
124 -14 2 -895 4 -1957 4 l-1933 1 0 275 0 275 513 1 c281 0 526 3 542 5 51 8
98 25 150 55 62 36 81 53 125 109 46 59 58 82 81 148 18 51 19 102 19 990 -1
592 -4 954 -11 982 -12 56 -42 130 -51 130 -5 0 -8 5 -8 10 0 6 -12 24 -27 42
-92 104 -171 148 -297 165 -35 5 -2615 11 -2619 6z m2126 -882 c4 -1 7 -199 7
-441 l0 -440 -880 0 -880 0 0 438 c0 241 2 441 4 443 3 3 1719 3 1749 0z
m-2635 -4843 l-3 -441 -653 -1 c-572 -1 -655 1 -661 14 -5 11 -7 820 -2 863 1
4 298 7 661 7 l660 0 -2 -442z m4843 430 c4 -60 1 -857 -3 -864 -5 -7 -1252
-11 -1310 -5 -5 1 -8 199 -8 441 l0 440 660 0 c521 0 660 -3 661 -12z"/>
</g>
</svg>
